<svg xmlns="http://www.w3.org/2000/svg" viewBox="0 0 1050 600" width="2100" height="1200">
  <defs>
    <linearGradient id="bg" x1="0" y1="0" x2="1" y2="1">
      <stop offset="0" stop-color="#0f172a"></stop>
      <stop offset="1" stop-color="#1e293b"></stop>
    </linearGradient>
    <pattern id="grid" width="32" height="32" patternUnits="userSpaceOnUse">
      <path d="M32 0 L0 0 0 32" fill="none" stroke="#ffffff" stroke-opacity="0.05"></path>
    </pattern>
    <radialGradient id="glow" cx="0.85" cy="0.15" r="0.7">
      <stop offset="0" stop-color="#10b981" stop-opacity="0.32"></stop>
      <stop offset="1" stop-color="#10b981" stop-opacity="0"></stop>
    </radialGradient>
    
  </defs>
  <rect width="1050" height="600" fill="url(#bg)"></rect>
  <rect width="1050" height="600" fill="url(#grid)"></rect>
  <rect width="1050" height="600" fill="url(#glow)"></rect>
  <g transform="translate(80,80)">
    <rect width="120" height="120" rx="26" fill="#ffffff"></rect>
    <path d="M30 38 L90 38 L90 52 L48 80 L90 80 L90 94 L30 94 L30 80 L72 52 L30 52 Z" fill="#0f172a"></path>
    <circle cx="112" cy="8" r="12" fill="#10b981" stroke="#0f172a" stroke-width="4"></circle>
  </g>
  <text x="80" y="380" font-family="Manrope" font-weight="800" font-size="80" letter-spacing="-2.5" fill="#ffffff">Z<tspan fill="#10b981">a</tspan>Feer</text>
  <text x="80" y="430" font-family="Manrope" font-weight="500" font-size="22" fill="#94a3b8">Modern HR · Payroll · Compliance</text>
  <line x1="80" y1="480" x2="970" y2="480" stroke="#ffffff" stroke-opacity="0.10"></line>
  <text x="80" y="528" font-family="Manrope" font-weight="700" font-size="22" fill="#ffffff">Ahmed Al-Sawy</text>
  <text x="80" y="556" font-family="Manrope" font-weight="500" font-size="16" fill="#94a3b8">Founder &amp; Product Lead</text>
  <text x="970" y="528" text-anchor="end" font-family="Manrope" font-weight="500" font-size="16" fill="#cbd5e1">ahmed@zafeer.sa</text>
  <text x="970" y="556" text-anchor="end" font-family="Manrope" font-weight="500" font-size="16" fill="#cbd5e1">+966 5X XXX XXXX · zafeer.sa</text>
</svg>