<svg xmlns="http://www.w3.org/2000/svg" viewBox="0 0 1200 630" width="2400" height="1260">
  <defs>
    <linearGradient id="bg" x1="0" y1="0" x2="1" y2="1">
      <stop offset="0" stop-color="#0f172a"></stop>
      <stop offset="1" stop-color="#1e293b"></stop>
    </linearGradient>
    <radialGradient id="glow" cx="0.85" cy="0.15" r="0.6">
      <stop offset="0" stop-color="#10b981" stop-opacity="0.45"></stop>
      <stop offset="1" stop-color="#10b981" stop-opacity="0"></stop>
    </radialGradient>
    <pattern id="grid" width="40" height="40" patternUnits="userSpaceOnUse">
      <path d="M40 0 L0 0 0 40" fill="none" stroke="#ffffff" stroke-opacity="0.04" stroke-width="1"></path>
    </pattern>
    
  </defs>
  <rect width="1200" height="630" fill="url(#bg)"></rect>
  <rect width="1200" height="630" fill="url(#grid)"></rect>
  <rect width="1200" height="630" fill="url(#glow)"></rect>
  <g transform="translate(72,72)">
    <rect x="0" y="0" width="84" height="84" rx="20" fill="#ffffff"></rect>
    <path d="M22 28 L62 28 L62 38 L36 56 L62 56 L62 66 L22 66 L22 56 L48 38 L22 38 Z" fill="#0f172a"></path>
    <circle cx="78" cy="6" r="9" fill="#10b981" stroke="#0f172a" stroke-width="3"></circle>
  </g>
  <text x="72" y="380" font-family="Manrope, system-ui" font-weight="800" font-size="92" letter-spacing="-3" fill="#ffffff">Z<tspan fill="#10b981">a</tspan>Feer</text>
  <text x="72" y="450" font-family="Manrope, system-ui" font-weight="500" font-size="32" fill="#94a3b8">Saudi-first HR management, modernized.</text>
  <g direction="rtl">
    <text x="1128" y="540" text-anchor="end" font-family="&#39;IBM Plex Sans Arabic&#39;" font-weight="700" font-size="36" fill="#ffffff">إدارة الموارد البشرية لشركات المملكة</text>
    <text x="1128" y="585" text-anchor="end" font-family="&#39;IBM Plex Sans Arabic&#39;" font-weight="500" font-size="22" fill="#94a3b8">منصة سحابية حديثة · امتثال نظامي · واجهة عربية أصيلة</text>
  </g>
</svg>